<svg xmlns="http://www.w3.org/2000/svg" fill="none" viewBox="0 0 32 32"><rect width="32" height="32" fill="#fff" rx="16"/><path fill="#2C2C38" d="M11.761 14.553c-.215.718-.614 1.276-1.199 1.674-.584.398-1.306.597-2.166.597-.747 0-1.41-.177-1.985-.532-.567-.363-1.01-.878-1.328-1.544-.31-.666-.464-1.445-.464-2.336 0-.89.155-1.67.464-2.336.318-.666.76-1.176 1.328-1.531C6.978 8.182 7.64 8 8.396 8c1.78 0 2.88.753 3.3 2.258l-.193.09c-.214-.726-.58-1.267-1.095-1.621-.508-.364-1.178-.545-2.012-.545-.713 0-1.34.173-1.882.519-.533.346-.95.839-1.25 1.48-.293.63-.439 1.375-.439 2.231 0 .857.146 1.605.438 2.245.301.632.722 1.12 1.264 1.467.541.346 1.165.519 1.87.519.807 0 1.486-.186 2.036-.558.559-.38.937-.917 1.135-1.61l.193.078Zm8.373-1.894v4.036h-.206V14.63c-.172.684-.533 1.22-1.083 1.61-.55.389-1.26.583-2.128.583-.747 0-1.405-.177-1.972-.532-.559-.363-.993-.878-1.302-1.544-.301-.666-.452-1.445-.452-2.336 0-.89.155-1.67.465-2.336.318-.666.76-1.176 1.328-1.531C15.35 8.182 16.012 8 16.768 8c1.78 0 2.88.753 3.3 2.258l-.18.09c-.215-.726-.58-1.267-1.096-1.621-.516-.364-1.19-.545-2.024-.545-.713 0-1.34.173-1.882.519-.533.346-.95.839-1.251 1.48-.292.63-.438 1.375-.438 2.231 0 .857.146 1.605.438 2.245.292.632.7 1.12 1.225 1.467.533.346 1.152.519 1.856.519.791 0 1.427-.169 1.908-.506.482-.338.817-.744 1.006-1.22.198-.476.297-.939.297-1.389v-.688H16.82v-.181h3.314Zm4.514 4.036h-.284L21.012 8.13h.22l2.926 7.436.348.895.348-.895 2.927-7.436H28l-3.352 8.565ZM7.95 25H5.96L4 18.148h1.908l1.124 5.45 1.228-5.45h1.609l1.248 5.44 1.124-5.44h1.836L12.107 25h-1.929l-.804-3.322-.31-1.672h-.02l-.3 1.672L7.95 25Zm12.419-1.38V25h-5.435v-6.852h5.301v1.38h-3.527v1.392h2.805v1.298h-2.805v1.401h3.661Zm1.071-5.472h3.311c1.636.007 2.455.623 2.455 1.848 0 .402-.117.74-.35 1.017-.235.277-.579.45-1.032.52v.01c.508.07.894.25 1.155.54.268.284.402.64.402 1.07 0 .594-.21 1.051-.629 1.37-.42.318-1.035.477-1.846.477H21.44v-6.852Zm2.991 2.803c.64 0 .96-.249.96-.747 0-.499-.32-.748-.96-.748h-1.279v1.495h1.28Zm.176 2.793c.316 0 .553-.066.711-.197.165-.132.248-.322.248-.571 0-.243-.083-.426-.248-.55-.158-.132-.395-.198-.711-.198h-1.455v1.516h1.455Z"/></svg>