<svg xmlns="http://www.w3.org/2000/svg" fill="none" viewBox="0 0 80 57"><path fill="#fff" d="M25.871 21.973c-.716 2.408-2.048 4.279-3.997 5.613-1.948 1.335-4.354 2.002-7.22 2.002-2.492 0-4.698-.595-6.618-1.784-1.89-1.218-3.366-2.944-4.426-5.178-1.031-2.234-1.547-4.844-1.547-7.832 0-2.988.515-5.599 1.547-7.832 1.06-2.234 2.535-3.945 4.426-5.135C9.927.61 12.133 0 14.655 0c5.93 0 9.597 2.524 11.001 7.571l-.644.305c-.717-2.437-1.934-4.25-3.653-5.44C19.669 1.219 17.433.61 14.654.61c-2.377 0-4.469.58-6.274 1.74-1.776 1.16-3.166 2.814-4.168 4.96-.975 2.118-1.462 4.613-1.462 7.485s.487 5.38 1.462 7.527c1.002 2.118 2.406 3.757 4.211 4.917 1.805 1.16 3.882 1.74 6.232 1.74 2.693 0 4.956-.623 6.79-1.87 1.862-1.277 3.122-3.075 3.781-5.396l.645.261ZM53.78 15.62v13.533h-.688v-6.919c-.573 2.292-1.776 4.09-3.61 5.396-1.834 1.305-4.197 1.958-7.09 1.958-2.493 0-4.685-.595-6.576-1.784-1.862-1.218-3.31-2.944-4.34-5.178-1.003-2.234-1.505-4.844-1.505-7.832 0-2.988.516-5.599 1.547-7.832 1.06-2.234 2.536-3.945 4.427-5.135C37.835.61 40.042 0 42.563 0c5.93 0 9.598 2.524 11.002 7.571l-.602.305c-.716-2.437-1.934-4.25-3.653-5.44C47.591 1.219 45.342.61 42.563.61c-2.378 0-4.47.58-6.274 1.74-1.777 1.16-3.166 2.814-4.169 4.96-.974 2.118-1.461 4.613-1.461 7.485s.487 5.38 1.461 7.527c.974 2.118 2.335 3.757 4.083 4.917 1.776 1.16 3.839 1.74 6.188 1.74 2.636 0 4.756-.565 6.36-1.696 1.605-1.132 2.722-2.495 3.352-4.09.66-1.596.989-3.148.989-4.656V16.23H42.735v-.61h11.044ZM68.826 29.153h-.945L56.708.435h.73l9.755 24.932 1.16 3.002 1.161-3.002L79.27.435H80L68.826 29.153ZM13.168 57H6.532L0 34.026h6.36l3.748 18.275 4.09-18.275h5.364l4.16 18.24 3.748-18.24h6.12L27.022 57h-6.43l-2.681-11.139-1.031-5.604h-.07l-.996 5.604L13.168 57ZM54.563 52.37V57H36.445V34.026h17.672v4.63H42.359v4.664h9.351v4.351h-9.351v4.7h12.204ZM58.134 34.026H69.17c5.455.023 8.183 2.088 8.183 6.196 0 1.346-.39 2.483-1.17 3.411-.779.928-1.925 1.509-3.437 1.74v.036c1.696.232 2.98.835 3.85 1.81.894.951 1.341 2.146 1.341 3.585 0 1.996-.699 3.527-2.097 4.595C74.442 56.466 72.39 57 69.686 57H58.134V34.026Zm9.97 9.398c2.132 0 3.198-.835 3.198-2.506 0-1.67-1.066-2.506-3.198-2.506h-4.263v5.012h4.263Zm.585 9.364c1.054 0 1.845-.22 2.372-.661.55-.441.825-1.08.825-1.915 0-.812-.275-1.427-.825-1.845-.527-.44-1.318-.661-2.372-.661H63.84v5.082h4.848Z"/></svg>