<svg xmlns="http://www.w3.org/2000/svg" fill="none" viewBox="0 0 363 138"><path fill="#2C2C38" d="M110.889 102.485c-3.336 11.23-9.541 19.956-18.615 26.18C83.2 134.888 71.99 138 58.647 138c-11.61 0-21.884-2.774-30.825-8.321-8.807-5.682-15.679-13.732-20.616-24.15C2.402 95.112 0 82.935 0 69c0-13.935 2.402-26.112 7.206-36.53 4.937-10.417 11.81-18.4 20.616-23.946C36.63 2.84 46.904 0 58.647 0c27.622 0 44.702 11.77 51.241 35.312l-3.002 1.42c-3.336-11.364-9.008-19.82-17.014-25.367C81.999 5.682 71.591 2.84 58.647 2.84c-11.076 0-20.817 2.706-29.223 8.118-8.274 5.412-14.746 13.123-19.416 23.135C5.471 43.971 3.203 55.606 3.203 69c0 13.394 2.268 25.097 6.805 35.109 4.67 9.876 11.209 17.52 19.616 22.932 8.407 5.412 18.08 8.118 29.023 8.118 12.543 0 23.085-2.909 31.625-8.727 8.674-5.953 14.545-14.341 17.614-25.164l3.003 1.217ZM240.876 72.856v63.115h-3.203v-32.268c-2.669 10.688-8.273 19.076-16.813 25.165-8.541 6.088-19.549 9.132-33.027 9.132-11.609 0-21.817-2.774-30.624-8.321-8.674-5.682-15.413-13.732-20.216-24.15-4.671-10.417-7.006-22.594-7.006-36.529 0-13.935 2.402-26.112 7.206-36.53 4.937-10.417 11.809-18.4 20.616-23.946C166.616 2.84 176.891 0 188.634 0c27.622 0 44.702 11.77 51.241 35.312l-2.802 1.42c-3.336-11.364-9.008-19.82-17.014-25.367-8.006-5.683-18.481-8.524-31.425-8.524-11.076 0-20.817 2.706-29.224 8.118-8.273 5.412-14.745 13.123-19.415 23.135-4.537 9.877-6.806 21.512-6.806 34.906 0 13.394 2.269 25.097 6.806 35.109 4.537 9.876 10.875 17.52 19.015 22.932 8.273 5.412 17.881 8.118 28.823 8.118 12.277 0 22.151-2.638 29.624-7.915 7.473-5.276 12.677-11.635 15.612-19.076 3.07-7.442 4.604-14.68 4.604-21.715V75.697h-48.238v-2.841h51.441ZM310.958 135.971h-4.403L254.513 2.029h3.403l45.436 116.286 5.405 14.003 5.404-14.003L359.597 2.029H363l-52.042 133.942Z"/></svg>